<svg width="1440" height="620" viewBox="0 0 1440 620" fill="none" xmlns="http://www.w3.org/2000/svg" role="img" aria-labelledby="title desc">
  <title id="title">MA init provider setup preview</title>
  <desc id="desc">Two terminal-style cards showing MA init setup for LM Studio local and DeepSeek official providers.</desc>
  <rect width="1440" height="620" fill="#050505"/>
  <g font-family="SFMono-Regular, Consolas, Liberation Mono, monospace" letter-spacing="0">
    <rect x="26" y="18" width="672" height="556" rx="8" fill="#0b0c0f" stroke="#34313d" stroke-width="2"/>
    <circle cx="74" cy="68" r="8" fill="#ff6868"/>
    <circle cx="104" cy="68" r="8" fill="#ffd166"/>
    <circle cx="134" cy="68" r="8" fill="#b7ff68"/>
    <text x="76" y="134" fill="#f6f3f7" font-size="32" font-weight="700">ma init</text>
    <text x="76" y="204" fill="#f6f3f7" font-size="32" font-weight="700">my-agent init</text>
    <text x="76" y="288" fill="#f6f3f7" font-size="32" font-weight="700">Model source</text>
    <text x="76" y="342" fill="#f6f3f7" font-size="32" font-weight="700">Model source</text>
    <text x="76" y="398" fill="#d8ccff" font-size="31">✓ LM Studio local</text>
    <text x="76" y="496" fill="#d8ccff" font-size="28">Base URL</text>
    <text x="252" y="496" fill="#8d849e" font-size="28">(localhost:1234/v1):</text>
    <text x="76" y="546" fill="#d8ccff" font-size="28">Credential name</text>
    <text x="356" y="546" fill="#8d849e" font-size="28">(LMStudio-local):</text>
    <rect x="634" y="514" width="18" height="42" fill="#74e7ff"/>

    <rect x="742" y="18" width="672" height="556" rx="8" fill="#0b0c0f" stroke="#34313d" stroke-width="2"/>
    <circle cx="790" cy="68" r="8" fill="#ff6868"/>
    <circle cx="820" cy="68" r="8" fill="#ffd166"/>
    <circle cx="850" cy="68" r="8" fill="#b7ff68"/>
    <text x="792" y="134" fill="#f6f3f7" font-size="32" font-weight="700">ma init</text>
    <text x="792" y="204" fill="#f6f3f7" font-size="32" font-weight="700">my-agent init</text>
    <text x="792" y="288" fill="#f6f3f7" font-size="32" font-weight="700">Model source</text>
    <text x="792" y="342" fill="#f6f3f7" font-size="32" font-weight="700">Model source</text>
    <text x="792" y="398" fill="#d8ccff" font-size="31">✓ DeepSeek official</text>
    <text x="792" y="496" fill="#d8ccff" font-size="28">Base URL</text>
    <text x="968" y="496" fill="#8d849e" font-size="28">(api.deepseek.com):</text>
    <text x="792" y="546" fill="#d8ccff" font-size="28">API key</text>
    <text x="936" y="546" fill="#8d849e" font-size="28">(stored in Keychain):</text>
    <rect x="1348" y="514" width="18" height="42" fill="#74e7ff"/>
  </g>
</svg>
